{
  "accessors": [
    {
      "bufferView": 2,
      "componentType": 5126,
      "count": 65532,
      "max": [
        25.54045295715332,
        31.800443649291992,
        19.222293853759766
      ],
      "min": [
        -25.54045295715332,
        -31.800443649291992,
        -19.1849365234375
      ],
      "type": "VEC3"
    },
    {
      "bufferView": 2,
      "byteOffset": 786384,
      "componentType": 5126,
      "count": 65532,
      "max": [
        0.9999062418937683,
        0.9999055862426758,
        0.9999818205833435
      ],
      "min": [
        -0.9999778270721436,
        -0.9964418411254883,
        -0.9999514818191528
      ],
      "type": "VEC3"
    },
    {
      "bufferView": 1,
      "componentType": 5126,
      "count": 65532,
      "max": [
        0.995386004447937,
        0.9997619986534119
      ],
      "min": [
        0.0023350000847131014,
        0.002939000027254224
      ],
      "type": "VEC2"
    },
    {
      "bufferView": 0,
      "componentType": 5125,
      "count": 309120,
      "type": "SCALAR"
    },
    {
      "bufferView": 2,
      "byteOffset": 1572768,
      "componentType": 5126,
      "count": 41295,
      "max": [
        25.52413558959961,
        31.107831954956055,
        19.222293853759766
      ],
      "min": [
        -25.522136688232422,
        -31.596948623657227,
        -19.222293853759766
      ],
      "type": "VEC3"
    },
    {
      "bufferView": 2,
      "byteOffset": 2068308,
      "componentType": 5126,
      "count": 41295,
      "max": [
        0.9999675154685974,
        0.9999613761901855,
        0.9999818205833435
      ],
      "min": [
        -0.9999160170555115,
        -0.9999898672103882,
        -0.9998459815979004
      ],
      "type": "VEC3"
    },
    {
      "bufferView": 1,
      "byteOffset": 524256,
      "componentType": 5126,
      "count": 41295,
      "max": [
        0.9966019988059998,
        1.0004769563674927
      ],
      "min": [
        0.0012890000361949205,
        0.0032389999832957983
      ],
      "type": "VEC2"
    },
    {
      "bufferView": 0,
      "byteOffset": 1236480,
      "componentType": 5125,
      "count": 148935,
      "type": "SCALAR"
    }
  ],
  "asset": {
    "extras": {
      "author": "Mark Burginger architect (https://sketchfab.com/toy_meister)",
      "license": "CC-BY-NC-4.0 (http://creativecommons.org/licenses/by-nc/4.0/)",
      "source": "https://sketchfab.com/3d-models/griffith-observatory-206b9e053342451caed70dc000c81bd0",
      "title": "Griffith Observatory"
    },
    "generator": "Sketchfab-12.67.0",
    "version": "2.0"
  },
  "bufferViews": [
    {
      "buffer": 0,
      "byteLength": 1832220,
      "name": "floatBufferViews",
      "target": 34963
    },
    {
      "buffer": 0,
      "byteLength": 854616,
      "byteOffset": 1832220,
      "byteStride": 8,
      "name": "floatBufferViews",
      "target": 34962
    },
    {
      "buffer": 0,
      "byteLength": 2563848,
      "byteOffset": 2686836,
      "byteStride": 12,
      "name": "floatBufferViews",
      "target": 34962
    }
  ],
  "buffers": [
    {
      "byteLength": 5250684,
      "uri": "scene.bin"
    }
  ],
  "extensionsUsed": [
    "KHR_materials_unlit"
  ],
  "images": [
    {
      "uri": "textures/model_baseColor.jpeg"
    }
  ],
  "materials": [
    {
      "doubleSided": true,
      "extensions": {
        "KHR_materials_unlit": {}
      },
      "name": "model",
      "pbrMetallicRoughness": {
        "baseColorTexture": {
          "index": 0
        },
        "metallicFactor": 0.0
      }
    }
  ],
  "meshes": [
    {
      "name": "Object_0",
      "primitives": [
        {
          "attributes": {
            "NORMAL": 1,
            "POSITION": 0,
            "TEXCOORD_0": 2
          },
          "indices": 3,
          "material": 0,
          "mode": 4
        }
      ]
    },
    {
      "name": "Object_1",
      "primitives": [
        {
          "attributes": {
            "NORMAL": 5,
            "POSITION": 4,
            "TEXCOORD_0": 6
          },
          "indices": 7,
          "material": 0,
          "mode": 4
        }
      ]
    }
  ],
  "nodes": [
    {
      "children": [
        1
      ],
      "matrix": [
        0.9861752390861511,
        0.0028502370696514476,
        0.16568124294281006,
        0.0,
        0.12578393518924713,
        0.6380248069763186,
        -0.7596727609634398,
        0.0,
        -0.10787399858236313,
        0.7700105309486388,
        0.6288457512855532,
        0.0,
        1.1304231520625763e-05,
        7.418748282361774e-05,
        6.594825390493499e-05,
        1.0
      ],
      "name": "Sketchfab_model"
    },
    {
      "children": [
        2,
        3
      ],
      "name": "model.obj.cleaner.materialmerger.gles"
    },
    {
      "mesh": 0,
      "name": "Object_2"
    },
    {
      "mesh": 1,
      "name": "Object_3"
    }
  ],
  "samplers": [
    {
      "magFilter": 9729,
      "minFilter": 9987,
      "wrapS": 10497,
      "wrapT": 10497
    }
  ],
  "scene": 0,
  "scenes": [
    {
      "name": "Sketchfab_Scene",
      "nodes": [
        0
      ]
    }
  ],
  "textures": [
    {
      "sampler": 0,
      "source": 0
    }
  ]
}
