{
	"asset":{
		"generator":"Khronos glTF Blender I/O v4.1.63",
		"version":"2.0"
	},
	"scene":0,
	"scenes":[
		{
			"name":"Scene",
			"nodes":[
				1
			]
		}
	],
	"nodes":[
		{
			"mesh":0,
			"name":"Laje Parapeito",
			"scale":[
				0.009999999776482582,
				0.009999999776482582,
				0.009999999776482582
			],
			"translation":[
				0,
				3.3698734114295803e-06,
				0
			]
		},
		{
			"children":[
				0
			],
			"name":"Node_1",
			"rotation":[
				-0.6964541077613831,
				0.12227728962898254,
				0.12227730453014374,
				0.6964539885520935
			],
			"translation":[
				-25.760976791381836,
				3.7300004959106445,
				51.28407287597656
			]
		}
	],
	"materials":[
		{
			"name":"Material__14255",
			"pbrMetallicRoughness":{
				"baseColorTexture":{
					"index":0,
					"texCoord":1
				},
				"metallicFactor":0
			}
		}
	],
	"meshes":[
		{
			"name":"Laje Parapeito",
			"primitives":[
				{
					"attributes":{
						"POSITION":0,
						"NORMAL":1,
						"TEXCOORD_0":2,
						"TEXCOORD_1":3,
						"TEXCOORD_2":4
					},
					"indices":5,
					"material":0
				}
			]
		}
	],
	"textures":[
		{
			"sampler":0,
			"source":0
		}
	],
	"images":[
		{
			"mimeType":"image/jpeg",
			"name":"Material__14255basecolortexture",
			"uri":"texture/Material__14255basecolortexture.jpg"
		}
	],
	"accessors":[
		{
			"bufferView":0,
			"componentType":5126,
			"count":393464,
			"max":[
				7199.86767578125,
				5628.22314453125,
				724.814697265625
			],
			"min":[
				-4192.482421875,
				-4398.4638671875,
				-740.3345947265625
			],
			"type":"VEC3"
		},
		{
			"bufferView":1,
			"componentType":5126,
			"count":393464,
			"type":"VEC3"
		},
		{
			"bufferView":2,
			"componentType":5126,
			"count":393464,
			"type":"VEC2"
		},
		{
			"bufferView":3,
			"componentType":5126,
			"count":393464,
			"type":"VEC2"
		},
		{
			"bufferView":4,
			"componentType":5126,
			"count":393464,
			"type":"VEC2"
		},
		{
			"bufferView":5,
			"componentType":5125,
			"count":1398528,
			"type":"SCALAR"
		}
	],
	"bufferViews":[
		{
			"buffer":0,
			"byteLength":4721568,
			"byteOffset":0,
			"target":34962
		},
		{
			"buffer":0,
			"byteLength":4721568,
			"byteOffset":4721568,
			"target":34962
		},
		{
			"buffer":0,
			"byteLength":3147712,
			"byteOffset":9443136,
			"target":34962
		},
		{
			"buffer":0,
			"byteLength":3147712,
			"byteOffset":12590848,
			"target":34962
		},
		{
			"buffer":0,
			"byteLength":3147712,
			"byteOffset":15738560,
			"target":34962
		},
		{
			"buffer":0,
			"byteLength":5594112,
			"byteOffset":18886272,
			"target":34963
		}
	],
	"samplers":[
		{
			"magFilter":9729,
			"minFilter":9987
		}
	],
	"buffers":[
		{
			"byteLength":24480384,
			"uri":"ceu.bin"
		}
	]
}
